<?xml version="1.0" encoding="utf-8"?>
<!-- Generator: Adobe Illustrator 17.0.0, SVG Export Plug-In . SVG Version: 6.00 Build 0)  -->
<!DOCTYPE svg PUBLIC "-//W3C//DTD SVG 1.1//EN" "http://www.w3.org/Graphics/SVG/1.1/DTD/svg11.dtd">
<svg version="1.1" id="Layer_1" xmlns="http://www.w3.org/2000/svg" xmlns:xlink="http://www.w3.org/1999/xlink" x="0px" y="0px"
	 width="195px" height="150px" viewBox="0 0 195 150" enable-background="new 0 0 195 150" xml:space="preserve">
<g>
	<path fill="#F3B446" d="M133.253,62.501l-1.864,8.017h-1.439v1.056l1.344,0.96l0.096,1.632l-0.576,0.576l0.001,1.056h1.151
		l0.304,5.862c0.443,0.121,0.978,0.217,1.587,0.192l-0.498-9.606l-0.912-0.097l-0.192-0.96h1.057l0.48-0.384l-0.769-0.576
		l0.373-1.246l1.931-6.415c-0.354-0.025-0.24-0.023-0.124-0.023c7.598,0,13.758-2.031,13.758-4.538c0-2.506-6.16-4.537-13.758-4.537
		c-7.6,0-13.76,2.031-13.76,4.537C121.44,60.298,126.577,62.19,133.253,62.501z M135.853,55.783c0.821,0,1.487,0.14,1.487,0.312
		c0,0.173-0.666,0.312-1.487,0.312c-0.822,0-1.488-0.14-1.488-0.312C134.365,55.922,135.031,55.783,135.853,55.783z"/>
	<path fill="#F3B446" d="M138.493,67.447l0.21,0.827c1.878-1.133,10.749-6.069,19.821-4.29l-0.35-1.049c0,0-4.319-1.152-9.793,0
		C142.907,64.087,138.493,67.447,138.493,67.447z"/>
	<path fill="#F3B446" d="M176.753,75.248h7.607v-1.248c-1.266-0.168-6.385-0.003-7.607,0.039V75.248z"/>
	<path fill="#F3B446" d="M159.429,66.159c6.681-4.007,12.549-2.87,13.65-2.604l-0.318-1.007c0,0-2.488-1.005-7.24-0.093
		c-2.663,0.511-5.347,1.809-6.304,2.301L159.429,66.159z"/>
	<path fill="#F3B446" d="M130.62,85.237c-9.676,0-12.865,0.486-14.363,0.873l-0.133,0.095v2.208l0.253,0.253l-0.036-0.131
		c1.55-0.424,4.059-0.875,14.279-0.875c7.018,0,9.947,0.627,10.848,0.882l0.77-0.129l-0.096-1.536l-0.673-0.576v-0.111
		C140.018,85.842,136.63,85.237,130.62,85.237z"/>
	<path fill="#F3B446" d="M183.005,85.126l0.074-2.361l0.44,0.044l2.112-0.288l-0.384-1.344h-0.672l-0.097-1.824l0.768-0.192
		l-0.466-2.976h-8.966v-3.494l-1.705-1.786l0.384-2.592v-1.536l-0.672-0.864l-0.662-1.417c-0.062-0.019-6.432-1.853-13.736,2.72
		l-0.373,0.233l-0.527-2.366c-9.23-1.911-18.018,3.446-19.445,4.328l-0.345,0.053c0,0,0.003-0.002,0,0h-0.241l-0.576-0.503
		l-0.576,1.368l1.057,0.48c-0.576,2.496,0.96,3.648,0.96,3.648l1.152,0.384l1.151,3.84c-1.535,0.384-1.439,1.056-1.439,1.056v2.688
		h-6.291c-0.087,0.004-0.176,0.013-0.26,0.013c-0.519,0-0.976-0.079-1.371-0.176l0.001,0.02c-2.016-0.48-15.505,0.623-15.505,0.623
		v1.879c1.842-0.374,5.357-0.734,13.824-0.734c6.732,0,10.177,0.736,11.39,1.067l0.227-0.1h9.505l7.296-2.497l2.4-0.096l0.864-1.249
		l-0.097-1.056l2.209,0.096l0.191,1.473l1.633,0.627l-0.474,1.396l-0.595,2.528l-5.761,0.099
		c-0.812,0.314-15.208,6.314-8.823,30.231c0.388,1.315,0.362,2.147,1.396,2.792l6.542,3.285l-2.416,10.036l0.96,0.384l1.104-0.384
		l0.722-4.608h0.863l-0.144-1.729l0,0l0.972-2.964c0,0,5.758,1.56,6.1,1.658c7.834,2.243,11.29,1.811,11.29,1.811
		s2.088,0.025,4.697-1.037c0.991-0.403,1.485,3.921,1.635,3.855c0.308-0.134,0.704,0.006,1.02-0.16
		c0.243-0.127-1.118-4.096-0.872-4.243c3.984-2.383,8.569-7.99,8.569-18.938C193.025,88.882,184.739,85.741,183.005,85.126z
		 M180.064,83.096l0.576-0.576l0.818,0.082l0.095,1.838H176.8l-0.192-1.248L180.064,83.096z M178.466,125.267
		c-7.265,0-12.548-8.834-12.548-19.729s5.283-19.729,12.548-19.729c7.264,0,13.152,8.833,13.152,19.729
		S185.73,125.267,178.466,125.267z"/>
	<polygon fill="#F3B446" points="164.643,84.013 157.526,84.013 156.949,85.237 164.355,85.237 	"/>
	<path fill="#F3B446" d="M157.441,86.24h-1.355v-0.043c-5.22,1.188-9.663,7.632-10.385,15.712c-0.234,2.617-0.053,5.126,0.467,7.393
		l0.005,4.324l-0.864,1.44l-1.056-0.192l-3.36-4.512v-1.44l0.768-0.576l0.384-1.92l-0.96-0.288v-1.056l1.536-0.096v-1.056
		l-1.632-1.152l0.096-0.576V89.616c-0.416-0.129-3.043-0.84-10.465-0.84c-9.522,0-12.271,0.39-13.818,0.813l0.043,8.916
		l-0.529,0.048l-0.047-5.088l-1.488-0.097l0.479,1.44l-0.96,30.434l0.48,0.863l0.768-0.863l1.021-15.458
		c2.688,1.729,10.403,1.537,10.403,1.537l-9.312,14.305l-0.769,3.937l1.44,0.672l1.248-0.672l0.48-3.648l1.824-4.032l7.296-10.561
		c8.544,0.096,9.505-0.672,9.505-0.672v1.728l4.032,3.84l0.384,2.4l2.017,3.84l2.399,0.576l0.192-0.96l-0.576-0.192l-1.061-3.964
		l0.725-1.652l1.81-1.106l0.003,0.002c0.174,0.261,0.365,0.48,0.566,0.676C144.05,95.525,153.925,88.16,157.441,86.24z"/>
</g>
<path fill="#F3B446" d="M116.427,73.794c-0.576,0.095-0.695,0.504-0.695,0.504l-10.657,3.168c0,0-1.536,0.145-2.364-0.179
	c-0.828-0.324-2.149-1.165-2.149-1.165l-1.439-1.051h1.248c0,0,5.472,0.524,7.104,0c1.633-0.524,2.991-1.464,2.991-1.464
	l1.138-1.518l1.152-3.155l2.268-0.72l-2.52-0.144l-0.756,1.008l5.136-12.542c0.033-0.039,0.119-0.143,0.336-0.403
	c0.479-0.576,0.144-1.133,0.144-1.133s-0.455-0.13-0.791,0.469c-0.336,0.599-0.265,0.971-0.265,0.971l-5.472,11.713l-0.492,0.853
	l0.18-0.828l-0.936,0.432c0,0-1.513,2.569-2.809,2.664c-1.296,0.095-3.625,0.097-6.625-0.504c-3-0.601-5.776-2.595-6.566-3.215
	c-0.79-0.62-2.484-2.304-2.484-2.304l5.244,1.812l2.967-5.919c0,0,3.11-6.91,2.903-12.134c-0.311-7.835-2.808-8.795-4.247-12.155
	c-1.44-3.359-1.92-7.488-1.92-7.488s-0.192-0.961,0.672-1.825c0.864-0.864,2.784-1.248,2.784-1.248s2.784,0.383,3.647-0.961
	c0.864-1.343,0.961-3.743,0.961-3.743l-2.305-1.632l-1.248-0.288l-0.959-0.288l-0.48,0.384l-0.672,0.096l-0.769-0.481l-0.479,0.576
	l-0.961-0.48l-0.863,0.48l-0.769-0.576l-1.056,0.576l-3.36-0.192l-0.48-0.576l2.688-3.36l0.864-0.864l1.344,0.096l-0.096-2.4
	l1.344,0.096l0.288-1.536l1.729,0.096l0.191-2.688l1.537,0.384l-0.769-3.649c0,0-1.439-1.538-3.84-2.112
	c-2.399-0.574-5.568,0-5.568,0s-3.434,2.29-5.76,3.841c-2.327,1.551-8.449,3.072-8.449,3.072s1.537,2.303,1.152,2.688
	c-0.384,0.386-3.264,0.96-3.264,0.96s0.142,4.149-0.385,5.376c-1.151,2.687-3.647,4.8-3.647,4.8S68.976,33.11,70.8,37.43
	c1.824,4.32,6.721,6.146,6.721,6.146v0.96c0,0-2.496,1.823-5.568,3.072c-1.469,0.598-6.54,1.788-6.54,1.788s-6.9,4.077-9.587,7.049
	c-2.596,2.871-1.057,3.656-3.938,4.521c-2.881,0.865-2.496,3.659-4.513,4.812c-2.016,1.153-4.031,4.032-6.721,6.72
	c-2.688,2.689-6.479,11.941-6.479,11.941S5.722,117.133,3.788,125.565c-1.622,7.07-1.91,9.95,4.608,16.513
	c4.522,4.553,9.12,4.607,13.057,4.8s17.677-1.345,22.754-2.401c5.077-1.056,7.081-0.883,12.192-1.536
	c2.774-0.355,6.049-0.096,14.113-0.48c8.064-0.384,18.912,0.385,18.912,0.385s-1.464-2.808-15.877-4.105
	c-6.566-0.59-7.884-1.692-17.701-2.062c-9.817-0.37-7.32-0.206-14.629,0.19c-7.308,0.396-16.98-0.36-16.98-0.36
	s-4.848-0.848-6.049-5.088c-1.128-3.984,2.593-8.161,2.593-8.161s6.288-7.164,12.96-9.793c5.259-2.072,12.727-6.649,16.043-8.483
	c2.258-1.248,7.249-7.729,7.249-7.729s-2.832,5.382-3.602,6.311c-0.623,0.752-2.539,3.99-2.539,3.99l-1.394,2.887
	c0,0-2.448,4.716-2.221,7.344c0.229,2.627-0.768,7.2-0.768,7.2s-2.031,3.172-2.521,4.357c-0.212,0.514-0.504,2.149,0.108,3.204
	c0.611,1.056,2.304,1.548,4.824,1.944c2.52,0.396,1.404-0.072,4.308,0.383c2.904,0.456,5.952,1.345,5.952,1.345l-1.116-1.404
	c0.552-0.385,1.692-0.108,1.692-0.108l3.456,0.647c0,0-2.437-2.17-1.98-2.339c0.456-0.169,3.324,0.227,3.324,0.227l-1.152-1.44
	c0,0-3.047-1.307-4.224-1.812c-1.178-0.505-3.604-0.844-3.604-0.844s-0.897-2.54-0.525-3.969c0.372-1.429,1.141-2.675,2.785-5.088
	c1.644-2.413,3.672-4.378,4.56-5.555c0.889-1.177,1.997-2.935,2.448-4.046c0.853-2.1,4.753-7.042,4.753-7.042
	s-1.129,3.179-1.453,4.007c-0.323,0.828-1.367,2.736-0.647,5.76c0.938,3.943,0.745,3.736,0.935,9.034l-0.035,0.914
	c0,0-0.672,0.302-1.008,0.997c-0.336,0.695-0.144,1.883-0.144,1.883l3.647,2.688l3.457,3.168l4.896,2.88c0,0-0.075-2.666-0.095-3.36
	c-0.021-0.694,0.84-0.311,1.535,0c0.695,0.311,5.28,2.112,5.28,2.112s-2.034-3.765-2.34-4.331c-0.306-0.566,3.204,0.395,3.204,0.395
	l-0.468-0.828c0,0-1.74-1.584-3.637-2.808c-1.895-1.224-6.66-3.204-6.66-3.204s0.288-5.364,0.504-6.912
	c0.216-1.548,3.421-8.173,4.404-13.706c0.983-5.533,0.384-13.921,0.384-13.921c5.664-4.896,8.929-12.097,8.929-12.097l5.185,0.48
	l3.348,2.773l-1.417,0.279c0,0-0.562,0.117-0.274,0.584c0.288,0.468,0.9,0.36,0.9,0.36s1.296-0.432,1.619,0.144
	c0.324,0.576-0.144,1.944-0.144,1.944s0.252,0.36,1.26,0.216c1.009-0.144,1.044-0.445,1.044-0.445l0.288-1.92l0.324-0.371
	l0.444,0.275l0.191,0.961c0,0,1.309-0.239,1.776-0.876c0.468-0.637,0.72-1.813,0.72-1.813l10.513-3.767c0,0,0.685,0.215,1.044,0
	c0.36-0.216,0.541-1.081,0.541-1.081S117.003,73.699,116.427,73.794z M96.579,5.011c0.227,0,0.41,0.184,0.41,0.41
	s-0.184,0.41-0.41,0.41c-0.226,0-0.409-0.184-0.409-0.41S96.353,5.011,96.579,5.011z M81.866,11.955
	c-1.378,0.347-2.572,0.327-2.665-0.044c-0.093-0.372,0.949-0.953,2.327-1.3c1.379-0.347,2.572-0.327,2.666,0.044
	C84.288,11.026,83.246,11.608,81.866,11.955z"/>
</svg>
