<?xml version="1.0" encoding="utf-8"?>
<!-- Generator: Adobe Illustrator 17.0.0, SVG Export Plug-In . SVG Version: 6.00 Build 0)  -->
<!DOCTYPE svg PUBLIC "-//W3C//DTD SVG 1.1//EN" "http://www.w3.org/Graphics/SVG/1.1/DTD/svg11.dtd">
<svg version="1.1" id="Layer_1" xmlns="http://www.w3.org/2000/svg" xmlns:xlink="http://www.w3.org/1999/xlink" x="0px" y="0px"
	 width="175px" height="35px" viewBox="12.5 12.5 175 35" enable-background="new 12.5 12.5 175 35" xml:space="preserve">
<g>
	<g>
		<path fill="#FFFFFF" d="M66.293,36.691l-3.189-5.002h-2.529v5.002h-1.566v-12.59h5.059c2.303,0,3.964,1.473,3.964,3.795
			c0,2.265-1.567,3.51-3.284,3.662l3.397,5.133H66.293z M66.406,27.897c0-1.436-1.037-2.398-2.529-2.398h-3.303v4.814h3.303
			C65.369,30.313,66.406,29.312,66.406,27.897z"/>
		<path fill="#FFFFFF" d="M72.07,35.465l0.83-1.189c0.528,0.662,1.265,1.246,2.359,1.246c1.548,0,2.529-1.076,2.529-2.643v-8.777
			h1.566v8.797c0,2.719-1.756,4.02-4.002,4.02C74.033,36.918,72.938,36.484,72.07,35.465z"/>
		<path fill="#FFFFFF" d="M95.91,36.691v-11.23l-4.587,11.23h-0.415l-4.606-11.23v11.23h-1.076v-12.59h1.604l4.284,10.476
			l4.267-10.476h1.623v12.59H95.91z"/>
		<path fill="#FFFFFF" d="M102.97,36.691v-12.59h7.984v0.982h-6.908v4.662h6.776v0.981h-6.776v4.983h6.908v0.98h-7.984V36.691z"/>
		<path fill="#FFFFFF" d="M119.656,36.691V25.084h-4.115v-0.982h9.324v0.982h-4.114v11.607H119.656z"/>
		<path fill="#FFFFFF" d="M137.305,36.691l-3.529-5.209h-2.774v5.209h-1.076v-12.59h4.7c2.17,0,3.832,1.379,3.832,3.682
			c0,2.283-1.605,3.549-3.492,3.623l3.643,5.285H137.305z M137.324,27.783c0-1.586-1.113-2.699-2.793-2.699h-3.53v5.417h3.53
			C136.211,30.501,137.324,29.368,137.324,27.783z"/>
		<path fill="#FFFFFF" d="M143.969,36.691v-12.59h1.076v12.59H143.969z"/>
		<path fill="#FFFFFF" d="M150.537,30.406c0-3.869,2.812-6.512,6.381-6.512c2,0,3.529,0.887,4.586,2.227l-0.906,0.586
			c-0.793-1.095-2.17-1.831-3.68-1.831c-2.945,0-5.248,2.246-5.248,5.53c0,3.246,2.303,5.531,5.248,5.531
			c1.51,0,2.887-0.736,3.68-1.832l0.926,0.566c-1.133,1.379-2.605,2.246-4.605,2.246C153.35,36.918,150.537,34.275,150.537,30.406z"
			/>
		<path fill="#FFFFFF" d="M165.809,34.918l0.697-0.812c0.812,0.926,2.134,1.832,3.945,1.832c2.567,0,3.303-1.436,3.303-2.512
			c0-3.699-7.549-1.774-7.549-6.172c0-2.057,1.85-3.359,4.133-3.359c1.869,0,3.304,0.66,4.266,1.774l-0.717,0.792
			c-0.906-1.094-2.189-1.585-3.605-1.585c-1.68,0-2.944,0.963-2.944,2.321c0,3.229,7.55,1.453,7.55,6.154
			c0,1.623-1.076,3.566-4.473,3.566C168.338,36.918,166.771,36.068,165.809,34.918z"/>
	</g>
	<g>
		<g>
			<path fill="#FFFFFF" d="M44.377,34.152l0.051-0.078l-0.01-0.006l0.066-8.149l0.002-0.002h-0.002v-0.002l0,0l-1.318-1.926
				c-0.207-0.301-0.633-0.693-0.949-0.875l-5.939-3.398c-0.316-0.182-0.871-0.35-1.234-0.375l-2.293-0.076l-0.002,0.006
				l-0.002-0.004l-7.162,4.107l0.002,0.004l-0.004-0.004l-0.951,1.961c-0.154,0.33-0.279,0.897-0.279,1.262l0.012,6.93
				c0,0.365,0.129,0.93,0.285,1.258l0.982,1.98H25.63l7.09,4.131l0.006-0.008l0,0l0.193-0.012h0.002h0.002l2.201-0.148
				c0.365-0.023,0.918-0.193,1.234-0.375l5.875-3.387c0.314-0.184,0.738-0.578,0.939-0.883l1.203-1.93L44.377,34.152L44.377,34.152z
				 M33.245,39.82l-6.783-3.844l2.307-5.469l5.327-0.027l2.673,4.826L33.245,39.82z M36.704,24.623l-2.72,4.764l-5.163-0.01
				l-2.323-5.35l6.442-3.773L36.704,24.623z M37.648,34.873L34.993,30.1l2.784-4.809l5.719,1.02l-0.038,7.635L37.648,34.873z
				 M44.303,25.916L44.303,25.916L44.303,25.916L44.303,25.916z M35.98,20.082l5.938,3.479c0.301,0.172,0.57,0.338,0.766,0.625
				l0.578,1.115l-5.656-0.916l-3.896-4.592l1.127-0.076C35.18,19.74,35.68,19.91,35.98,20.082z M25.064,33.44l-0.094-6.85
				c0-0.348,0.119-0.885,0.266-1.197l0.479-0.916l2.393,5.584l-2.314,5.492l-0.457-0.918C25.188,34.32,25.064,33.785,25.064,33.44z
				 M42.668,35.717c-0.191,0.289-0.592,0.664-0.891,0.838l-5.873,3.307c-0.303,0.172-0.559,0.363-0.904,0.387l-1.137-0.111
				l3.557-4.559l5.924-0.957L42.668,35.717z"/>
		</g>
	</g>
</g>
</svg>
